<svg width="29" height="41" viewBox="0 0 29 41" fill="none" xmlns="http://www.w3.org/2000/svg">
<path d="M28.1711 32.8856C27.5263 29.976 24.7723 28.1956 21.7007 29.328C20.0807 29.976 19.1119 30.2968 17.6587 30.2968C14.4235 30.2968 12.4843 28.6768 11.9983 26.0928C11.8331 25.4448 11.8331 24.8 11.9983 24.4728C12.6431 24.638 15.3971 25.4416 18.4687 24.7984C25.5839 23.342 28.9827 16.5492 27.3627 9.42918C25.7427 2.47595 18.6275 -1.24367 11.0311 0.376319C4.39547 1.83113 0.355039 6.84514 0.0310425 13.152C-0.130956 15.8996 0.355041 19.6224 1.16345 23.666C1.97344 28.1972 3.26625 31.7548 4.87988 34.1768C7.46868 38.0569 11.8363 40.49 16.8551 40.49C20.095 40.49 23.1651 39.9977 25.5871 38.5444C26.7147 37.8933 28.8207 35.9556 28.1727 32.884L28.1711 32.8856ZM9.57148 14.2891C8.93302 11.7003 10.5403 9.27671 13.1291 8.6303C15.7179 7.98389 18.1479 9.59912 18.7927 12.1879C19.4343 14.7767 17.8239 17.2003 15.2351 17.8483C12.6463 18.4947 10.2163 16.8748 9.57148 14.2907" fill="#BECD00"/>
</svg>
